<svg width="40" height="40" viewBox="0 0 40 40" fill="none" xmlns="http://www.w3.org/2000/svg">
<rect width="40" height="40" rx="6" fill="#FFF6F2"/>
<path fill-rule="evenodd" clip-rule="evenodd" d="M21.1566 10.2802L29.2077 14.7531C30.2641 15.34 30.2641 16.66 29.2077 17.2469L27.8521 18L29.2077 18.7531C30.2641 19.34 30.2641 20.66 29.2077 21.2469L27.8521 22L29.2077 22.7531C30.2641 23.34 30.2641 24.66 29.2077 25.2469L21.1566 29.7198C20.484 30.0934 19.516 30.0934 18.8434 29.7198L10.7923 25.2469C9.73591 24.66 9.73591 23.34 10.7923 22.7531L12.1479 22L10.7923 21.2469C9.73591 20.66 9.73591 19.34 10.7923 18.7531L12.1479 18L10.7923 17.2469C9.73591 16.66 9.73591 15.34 10.7923 14.7531L18.8434 10.2802C19.516 9.90659 20.484 9.90659 21.1566 10.2802ZM21.1566 21.7198L25.793 19.144L27.3339 20L25.793 20.856L23.7339 22L20.1853 23.9714C20.1168 24.0095 19.8832 24.0095 19.8147 23.9714L16.2661 22L14.207 20.856L12.6661 20L14.207 19.144L18.8434 21.7198C19.516 22.0934 20.484 22.0934 21.1566 21.7198ZM14.207 23.144L12.6661 24L19.8147 27.9714C19.8832 28.0095 20.1168 28.0095 20.1853 27.9714L27.3339 24L25.793 23.144L21.1566 25.7198C20.484 26.0934 19.516 26.0934 18.8434 25.7198L14.207 23.144ZM19.8147 12.0286C19.8832 11.9905 20.1168 11.9905 20.1853 12.0286L27.3339 16L20.1853 19.9714C20.1168 20.0095 19.8832 20.0095 19.8147 19.9714L12.6661 16L19.8147 12.0286Z" fill="#FF4C00"/>
</svg>
