<svg width="55" height="55" viewBox="0 0 55 55" fill="none" xmlns="http://www.w3.org/2000/svg">
<rect x="0.5" y="0.5" width="54" height="54" rx="4.5" fill="white" stroke="#D9DADC"/>
<path fill-rule="evenodd" clip-rule="evenodd" d="M26 30V32H22C19.2386 32 17 29.7614 17 27C17 24.2386 19.2386 22 22 22H26V24H22C20.3431 24 19 25.3431 19 27C19 28.6569 20.3431 30 22 30H26ZM30 24V22H34C36.7614 22 39 24.2386 39 27C39 29.7614 36.7614 32 34 32H30V30H34C35.6569 30 37 28.6569 37 27C37 25.3431 35.6569 24 34 24H30ZM33 26H23V28H33V26Z" fill="#FF4C00"/>
</svg>
