<svg width="65" height="27" viewBox="0 0 65 27" fill="none" xmlns="http://www.w3.org/2000/svg">
<path d="M8.61621 26.3984C13.7461 26.3984 16.8008 23.5098 16.8008 18.4131V4.33496C16.8008 2.6748 15.8711 1.71191 14.2939 1.71191C12.7168 1.71191 11.7871 2.6748 11.7871 4.33496V18.3799C11.7871 20.7871 10.6582 22.082 8.56641 22.082C6.97266 22.082 5.86035 21.1855 5.41211 19.5752C5.01367 18.2139 4.2832 17.6162 3.02148 17.6162C1.61035 17.6162 0.697266 18.5293 0.697266 19.9736C0.697266 20.7041 0.830078 21.3018 1.1123 21.999C2.24121 24.7549 5.01367 26.3984 8.61621 26.3984Z" fill="#434451"/>
<path d="M28.7373 26.3818C34.1162 26.3818 37.5527 22.9453 37.5527 17.085C37.5527 11.3076 34.0664 7.82129 28.7373 7.82129C23.4082 7.82129 19.9219 11.3242 19.9219 17.085C19.9219 22.9287 23.3584 26.3818 28.7373 26.3818ZM28.7373 22.6797C26.3467 22.6797 24.8359 20.6709 24.8359 17.1016C24.8359 13.5654 26.3799 11.5234 28.7373 11.5234C31.0947 11.5234 32.6221 13.5654 32.6221 17.1016C32.6221 20.6709 31.1113 22.6797 28.7373 22.6797Z" fill="#434451"/>
<path d="M42.5664 5.99512C44.0273 5.99512 45.1562 4.88281 45.1562 3.48828C45.1562 2.07715 44.0273 0.981445 42.5664 0.981445C41.1055 0.981445 39.9766 2.07715 39.9766 3.48828C39.9766 4.88281 41.1055 5.99512 42.5664 5.99512ZM42.5664 26.3486C44.0605 26.3486 44.9902 25.4023 44.9902 23.8252V10.3779C44.9902 8.80078 44.0605 7.83789 42.5664 7.83789C41.0557 7.83789 40.1426 8.80078 40.1426 10.3779V23.8252C40.1426 25.4023 41.0557 26.3486 42.5664 26.3486Z" fill="#434451"/>
<path d="M50.6514 26.3486C52.0791 26.3486 53.0752 25.4854 53.0752 23.8252V15.79C53.0752 13.4824 54.4531 11.8887 56.6279 11.8887C58.8027 11.8887 59.8984 13.2168 59.8984 15.541V23.8252C59.8984 25.4854 60.8945 26.3486 62.3223 26.3486C63.7334 26.3486 64.7461 25.4854 64.7461 23.8252V14.5283C64.7461 10.3613 62.5215 7.87109 58.5703 7.87109C55.8311 7.87109 54.0381 9.08301 53.0918 11.291H52.9922V10.2949C52.9922 8.76758 52.0293 7.83789 50.5684 7.83789C49.1074 7.83789 48.2275 8.76758 48.2275 10.2783V23.8252C48.2275 25.4854 49.2402 26.3486 50.6514 26.3486Z" fill="#434451"/>
</svg>
