<?xml version="1.0" encoding="UTF-8"?>
<svg width="40px" height="40px" viewBox="0 0 40 40" version="1.1" xmlns="http://www.w3.org/2000/svg" xmlns:xlink="http://www.w3.org/1999/xlink">
    <!-- Generator: Sketch 58 (84663) - https://sketch.com -->
    <title>#035 copy</title>
    <desc>Created with Sketch.</desc>
    <g id="Page-1" stroke="none" stroke-width="1" fill="none" fill-rule="evenodd">
        <g id="Desktop-HD-Copy-3" transform="translate(-1088.000000, -1709.000000)">
            <g id="#035-copy" transform="translate(1084.000000, 1705.000000)">
                <rect id="矩形" fill-rule="nonzero" x="0" y="0" width="48" height="48"></rect>
                <path d="M6,34 L6,11 C6,8.23857625 8.23857625,6 11,6 L37,6 C39.7614237,6 42,8.23857625 42,11 L42,37 C42,39.7614237 39.7614237,42 37,42 L10,42 L10,42" id="路径" stroke="#00D274" stroke-width="4" stroke-linecap="round" stroke-linejoin="round"></path>
                <path d="M15,26 L15,32" id="直线" stroke="#23AD83" stroke-width="4" stroke-linecap="round" stroke-linejoin="round"></path>
                <path d="M33,22 L33,32" id="直线" stroke="#23AD83" stroke-width="4" stroke-linecap="round" stroke-linejoin="round"></path>
                <path d="M24,16 L24,32" id="直线" stroke="#00D274" stroke-width="4" stroke-linecap="round" stroke-linejoin="round"></path>
                <path d="M33,18 C34.1045695,18 35,17.1045695 35,16 C35,14.8954305 34.1045695,14 33,14 C31.8954305,14 31,14.8954305 31,16 C31,17.1045695 31.8954305,18 33,18 Z" id="椭圆形" fill="#FF9F00" fill-rule="nonzero"></path>
            </g>
        </g>
    </g>
</svg>